<svg xmlns="http://www.w3.org/2000/svg" viewBox="0 0 128 128" width="128" height="128">
  <rect width="128" height="128" rx="12" fill="#3178c6" />
  <path fill="#fff" d="M28.6 64.6v8c1.5.8 3.3 1.4 5.2 1.8 2 .4 4 .6 6.1.6 2.1 0 4.1-.2 6-.6 1.9-.4 3.5-1 4.9-1.9 1.4-.8 2.5-1.9 3.2-3.3.8-1.4 1.2-3 1.2-5 0-1.4-.2-2.7-.7-3.8-.5-1.1-1.1-2.1-2-3s-1.9-1.7-3.1-2.4c-1.2-.7-2.5-1.4-4-2-1.2-.5-2.3-1-3.3-1.4-1-.4-1.8-.9-2.5-1.4-.7-.5-1.2-1-1.5-1.5-.3-.5-.5-1.2-.5-1.9 0-.6.2-1.2.5-1.7.3-.5.8-.9 1.4-1.2.6-.3 1.3-.6 2.2-.8.9-.2 1.8-.3 2.8-.3 1.1 0 2.2.1 3.3.3 1.1.2 2 .5 2.9.8.9.3 1.6.6 2.2.9.6.3 1 .6 1.2.7l2.3-7.8c-1.1-.6-2.6-1.2-4.4-1.6-1.8-.4-3.8-.7-6.1-.7-2.1 0-4 .2-5.8.7-1.8.5-3.4 1.2-4.7 2.1-1.3.9-2.4 2.1-3.1 3.5-.8 1.4-1.1 3-1.1 4.9 0 2.7.8 5 2.3 6.8 1.5 1.8 3.9 3.4 7 4.7 1.3.5 2.5 1 3.5 1.5 1.1.5 2 1 2.7 1.5.8.5 1.3 1.1 1.7 1.7.4.6.6 1.3.6 2.1 0 .6-.1 1.2-.4 1.7-.3.5-.7.9-1.3 1.3-.6.4-1.3.6-2.1.8-.8.2-1.8.3-2.9.3-2.9 0-5.3-.5-7.2-1.5-1.8-1-3.1-1.9-3.7-2.7l-2.1 8.3zM85.3 75h20.8v-7.5H85.3V48.7h-9.9v40.7h32.3v-7.6H85.3V75z" />
</svg>
